<svg id="Layer_1" data-name="Layer 1" xmlns="http://www.w3.org/2000/svg" viewBox="0 0 715.79 218.05"><path d="M696.21,547.41c1.51-2.56,2.59-4.16,3.45-5.87,7-13.84,14-27.64,20.72-41.6,2.1-4.35,5-6.19,9.75-6,7.49.25,15,.17,22.48,0,4.46-.07,6.28,1.93,6.26,6.34q-.11,40.23,0,80.45c0,4.15-1.68,6.18-5.94,6.11q-9.49-.14-19,0c-4.26.06-6-2-5.95-6.12.06-11.66,0-23.32,0-35a10.56,10.56,0,0,0-1.57-6c-.87,1.48-1.83,2.92-2.6,4.45-6.14,12.21-12.29,24.4-18.31,36.66-1.74,3.53-3.73,6.07-8.21,6-4.25-.06-6.14-2.51-7.79-5.85-6-12.25-12.18-24.45-18.31-36.66a9.93,9.93,0,0,0-3.85-4.4c-.14,1.87-.4,3.73-.41,5.6,0,11.49-.14,23,0,34.48.06,4.88-1.87,7-6.81,6.84-5.15-.19-10.32,0-15.48,0-8,0-8.6-.57-8.62-8.44q0-30.73,0-61.46c0-3.52.34-7.2-4.3-8.43-.54-.14-1.12-1.24-1.16-1.92-.28-5.15,6.61-12.55,11.78-12.61,6.83-.08,13.66.11,20.49-.07,4.39-.11,7.07,1.69,9,5.64,6.86,14.07,13.93,28,21,42C693.61,543.31,694.7,544.9,696.21,547.41Z" transform="translate(-587.15 -368.94)"/><path d="M1071,586.22c-2.53.27-4.27.6-6,.62-6.66.07-13.35-.27-20,.12-5.71.34-9-2-11.1-7.12-2.69-6.45-5.85-12.71-9-19-2.3-4.59-7.1-6.63-11.67-4.46-1.59.75-3,3.49-3.13,5.42-.41,6.14-.31,12.32-.16,18.49.11,4.66-1.86,6.7-6.55,6.57-6.16-.17-12.33-.1-18.5,0-3.93,0-5.84-1.7-5.82-5.7.05-16.83-.09-33.67.13-50.5.09-7,3.27-11,10.13-12.35,5.16-1,10.56-.95,15.86-1.15,3-.11,4.56,1.74,4.63,4.72.08,4,.17,8,.11,12s1.77,6.18,6,6.13c6.83-.08,13.67,0,20.5,0,3.73,0,5.5-1.87,5.5-5.55,0-6.16.11-12.33,0-18.49-.07-5.94-1.07-7-7.1-7-18.16-.06-36.32,0-54.49-.05-2.12,0-4.24-.26-6.3-.4-.28-8.61,5-14.49,12.75-14.5q33.5,0,67,0a37.87,37.87,0,0,1,9.37,1.15c5.5,1.44,8.55,5.18,8.63,10.84q.29,18.75,0,37.5c-.08,6-2.4,8.6-8.6,10.76s-6.31,2.5-3.37,8.45,6,11.91,8.91,17.9C1069.5,582.19,1070,583.87,1071,586.22Z" transform="translate(-587.15 -368.94)"/><path d="M906.48,508.37c2.27-11.73,5.38-14.4,16-14.4,9,0,18-.17,27,.1a37.6,37.6,0,0,1,10.2,1.92c4,1.3,6.18,4.46,6.19,8.76q.06,35.47,0,71a8.53,8.53,0,0,1-5.9,8.48,41.34,41.34,0,0,1-12.56,2.57c-18,.27-36,.12-54,.09a41.12,41.12,0,0,1-6-.41C877.1,584.92,874,581.37,874,571q0-31.23,0-62.46c0-9.34,4.08-13.71,13.41-14.39,3.32-.24,6.67,0,10-.15,4.68-.22,6.6,1.92,6.57,6.57-.1,15.82,0,31.64,0,47.47,0,5.83.1,11.66,0,17.48-.08,4.34,1.7,6.52,6.19,6.46,6.66-.1,13.32-.06,20,0,3.9,0,5.84-1.77,5.84-5.74q0-25.74,0-51.47c0-3.93-1.85-5.81-5.79-5.79-5.83,0-11.66,0-17.49-.06C910.73,508.85,908.79,508.57,906.48,508.37Z" transform="translate(-587.15 -368.94)"/><path d="M1026.87,422.19c1-2.44,1.41-4.26,2.38-5.69,5.79-8.5,4.85-18.08,4.63-27.55-.08-3.57-2.16-5-5.5-5-6,0-12,0-18-.09-1.9,0-3.8-.38-5.7-.59C1006,372.83,1010,369,1019.23,369q22.23,0,44.47,0c2.11,0,4.22.29,7.39.52-1.32,3.06-2,5.57-3.4,7.7-5.34,8.41-3.71,17.68-3.45,26.75a5.07,5.07,0,0,0,2.76,3.65c3.12,1.21,3.35,3.07,1.82,5.41-5.13,7.87-5.21,16.65-4.92,25.55.11,3.49.08,7-.05,10.49-.25,6.69-3.31,10.46-9.86,12a34.36,34.36,0,0,1-7.43.8q-29.22.09-58.45,0a31.22,31.22,0,0,1-7.39-1c-5.84-1.48-9.32-5.36-9.44-11.39-.26-12.15-.29-24.32,0-36.47,0-1.64,2.43-4.56,3.82-4.61a75.45,75.45,0,0,1,17.33.94c6.63,1.3,9.13,4.95,9.36,11.74.21,6.49.19,13,.1,19.48-.06,4.36,1.77,6.48,6.24,6.41,6.66-.1,13.33-.06,20,0,3.93,0,5.85-1.82,5.81-5.77,0-3.33-.13-6.67.07-10C1034.29,426.5,1033.35,422.82,1026.87,422.19Z" transform="translate(-587.15 -368.94)"/><path d="M765.64,508.27c1.44-10.73,5.35-14.3,15.11-14.3q32,0,64,0a45.19,45.19,0,0,1,8.93.75c6.83,1.41,10.1,5.27,10.19,12.19q.21,18,0,36c-.07,6.44-2.38,9.54-8.58,11.23a46.47,46.47,0,0,1-11.31,1.64c-11.65.21-23.31,0-35,.11-6,.05-7,1.06-7.05,7-.09,5.83-.14,11.66,0,17.49.09,4.32-1.59,6.54-6.14,6.44-6.33-.13-12.66-.08-19,0-4,0-5.74-1.86-5.73-5.8.06-16.82-.09-33.65.14-50.47.1-7,3.3-10.94,10.19-12.29,5.16-1,10.56-.95,15.86-1.13,3-.11,4.51,1.8,4.57,4.76q.12,6.24.15,12.49c0,3.68,1.78,5.55,5.5,5.54h21c3.74,0,5.47-1.91,5.47-5.56,0-6.17.11-12.33,0-18.49-.08-5.93-1.08-6.95-7.11-7-18.32-.06-36.65,0-55-.06C769.78,508.86,767.72,508.48,765.64,508.27Z" transform="translate(-587.15 -368.94)"/><path d="M1119.13,547.17c.59-1.87.7-3.11,1.31-4,5.52-8.22,6-17.4,5.56-26.87-.33-6.34-1-7.32-7.28-7.36-11.33-.08-22.66,0-34-.06-6.09-.05-6.25-.83-4.14-6.38,2.5-6.6,6.68-8.85,13.73-8.67,18,.45,36,.12,54,.17,6.69,0,7.54.88,7.6,7.46.07,8.33,0,16.67,0,25,0,3,.46,5.52,3.86,6.79.85.33,1.83,3.08,1.36,3.79-7.7,11.53-4.67,24.51-5.23,37-.09,2.16-.11,4.34,0,6.5.19,4.38-1.73,6.47-6.22,6.37q-8.75-.2-17.49,0c-4.5.1-6.29-2-6.23-6.38.11-8-.1-16,0-24C1126.1,551.79,1125.72,547.65,1119.13,547.17Z" transform="translate(-587.15 -368.94)"/><path d="M1242.48,547.36c2.4-11.85,5.37-14.38,16-14.38,9.33,0,18.66-.12,28,0,11.83.22,16.29,4.78,16.39,16.54.06,7.5.15,15-.1,22.49-.29,8.51-3.68,13.63-12,13.86q-34.89,1-69.83-.19c-8-.25-10.74-4.9-10.87-12.89a79.58,79.58,0,0,1,.23-12c.23-1.68,2.24-4.4,3.5-4.43a100.78,100.78,0,0,1,18.3,1c4.58.75,7.58,4.06,7.82,9.11.18,3.7,2.1,5.39,5.75,5.38q10.24,0,20.49,0c3.89,0,5.88-1.76,5.84-5.74,0-4.16,0-8.33,0-12.49,0-3.94-1.86-5.81-5.8-5.79q-8.75.06-17.49,0C1246.73,547.83,1244.8,547.55,1242.48,547.36Z" transform="translate(-587.15 -368.94)"/><path d="M961.86,412.26c0,11.49.07,23,0,34.48-.08,9.54-4.26,14.52-13.77,14.86-14,.51-28,.21-42,.23-3.76,0-4.61-1.59-3.09-5.08,4-9.3,4.61-9.78,14.89-9.79,13.09,0,13.09,0,13.09-13q0-28.49,0-57c0-7.23.73-7.9,8.1-7.94,5.49,0,11,.11,16.49,0,4.45-.11,6.31,1.87,6.28,6.3C961.78,387.61,961.85,399.93,961.86,412.26Z" transform="translate(-587.15 -368.94)"/><path d="M1110.89,415.56c0,13,0,26,0,39,0,6.38-.9,7.22-7.24,7.3-5.33.07-10.66.06-16,0-6.81-.07-7.59-.85-7.6-8,0-20.49,0-41,0-61.49,0-3.63.57-7.57-4.34-8.92-.52-.14-1.07-1.27-1.09-1.95-.18-5.31,6.58-12.47,11.84-12.53,6-.08,12,.11,18-.06,4.71-.13,6.56,2,6.52,6.61C1110.8,388.9,1110.88,402.23,1110.89,415.56Z" transform="translate(-587.15 -368.94)"/><path d="M1256,494c10,0,20-.11,30,0,12.47.17,17,4.63,16.93,17,0,14.31,2.32,14.55-15.12,13.61-7.56-.41-14.59-2.4-16-11.91-.22-1.46-3.2-3.44-5-3.55-7-.43-14-.16-21-.21-4,0-5.76,1.93-5.75,5.83,0,8.66,0,17.32-.07,26-.06,6.09-1,7.17-6.92,7.06a63.91,63.91,0,0,1-13.83-1.32c-6.54-1.57-9-5.14-9.1-11.92-.13-8.65-.1-17.31,0-26,.07-9.39,4.49-14.2,14-14.47,10.64-.31,21.3-.07,32-.07Z" transform="translate(-587.15 -368.94)"/><path d="M814.91,415.5c0,13,0,26,0,39,0,6.4-.93,7.29-7.19,7.37-5.33.07-10.67-.14-16,.05-5,.18-6.85-2.07-6.76-6.91.17-8.5,0-17,0-25.5,0-3-.41-5.48-3.76-6.88-.91-.38-1.71-3.66-1.08-4.62,5.64-8.56,5-18.08,4.84-27.58-.05-3-.4-5.65-3.89-6.71a3.16,3.16,0,0,1-1.82-2c-.69-3.64,5.89-12.41,9.6-12.52,7-.21,14-.1,21-.08,4.35,0,5.07,2.91,5.07,6.43Q814.88,395.5,814.91,415.5Z" transform="translate(-587.15 -368.94)"/><path d="M899.86,415.68c0,13,0,26,0,38.95,0,6.33-.91,7.26-7.28,7.2a78.29,78.29,0,0,1-13.88-.92c-6.34-1.21-9.56-5.19-9.59-11.58-.13-24.8,0-49.6-.1-74.39,0-4.24,2-6,6.12-5.95,6,.09,12,.16,18,0,4.89-.16,6.89,1.87,6.83,6.79C899.75,389.06,899.86,402.37,899.86,415.68Z" transform="translate(-587.15 -368.94)"/><path d="M622.9,540.41c0,13.15.05,26.29,0,39.43,0,6-1,6.92-7,7q-8,.12-16,0c-5.94-.09-6.87-1-6.89-7.11-.06-20.13,0-40.27-.07-60.4,0-4.29,1.34-9.35-4.83-11.09-.43-.12-.83-1-.91-1.62-.59-4.29,6.23-12.45,10.67-12.57,6-.15,12-.12,18-.05s7,1,7,7C623,514.13,622.9,527.27,622.9,540.41Z" transform="translate(-587.15 -368.94)"/><path d="M1158.58,508.42c1.81-11.21,5.38-14.44,15.21-14.45,8.13,0,16.27-.07,24.4.06,4.8.08,5.12,1,3.54,5.41-2.52,6.95-6.67,10.36-14.57,9.61-7.4-.71-14.92-.13-22.4-.18C1162.82,508.86,1160.88,508.6,1158.58,508.42Z" transform="translate(-587.15 -368.94)"/><path d="M836.93,383.83c-5,0-10,0-15,0-3.36,0-4.44-1.39-3.07-4.77,3.73-9.25,4.77-10.06,14.7-10.06,7.82,0,15.65-.08,23.48.05,5,.08,5.14,1,3.53,5.77-2.36,7.07-6.59,10.29-14.17,9.16-3.09-.46-6.31-.08-9.48-.08Z" transform="translate(-587.15 -368.94)"/><path d="M817.48,422.55c2.16-11.78,5.4-14.57,15.91-14.58,2,0,4,0,6,0,7.86,0,10.64,3.87,8.12,11.5-.4,1.21-1.86,2.91-2.87,2.94C835.73,422.65,826.82,422.55,817.48,422.55Z" transform="translate(-587.15 -368.94)"/></svg>